HIERARCHY
ROOT Hips
{
	OFFSET	0.00	0.00	0.00
	CHANNELS 6 Xposition Yposition Zposition Zrotation Xrotation Yrotation
	JOINT LeftUpLeg
	{
		OFFSET	 0.126116	-0.014019	-0.065224
		CHANNELS 3 Zrotation Xrotation Yrotation
		JOINT LeftLeg
		{
			OFFSET	 0.000000	 0.000000	 0.569914
			CHANNELS 3 Zrotation Xrotation Yrotation
			JOINT LeftFoot
			{
				OFFSET	 0.000000	 0.000000	 0.544423
				CHANNELS 3 Zrotation Xrotation Yrotation
				JOINT LeftToeBase
				{
					OFFSET	 0.000000	 0.000000	 0.207117
					CHANNELS 3 Zrotation Xrotation Yrotation
					End Site
					{
						OFFSET	 0.000000	 0.000000	 0.207117
					}
				}
			}
		}
	}
	JOINT RightUpLeg
	{
		OFFSET	-0.124023	-0.008373	-0.065224
		CHANNELS 3 Zrotation Xrotation Yrotation
		JOINT RightLeg
		{
			OFFSET	 0.000000	 0.000000	 0.570047
			CHANNELS 3 Zrotation Xrotation Yrotation
			JOINT RightFoot
			{
				OFFSET	 0.000000	 0.000000	 0.544354
				CHANNELS 3 Zrotation Xrotation Yrotation
				JOINT RightToeBase
				{
					OFFSET	 0.000000	 0.000000	 0.207540
					CHANNELS 3 Zrotation Xrotation Yrotation
					End Site
					{
						OFFSET	 0.000000	 0.000000	 0.207540
					}
				}
			}
		}
	}
	JOINT Spine
	{
		OFFSET	 0.000184	-0.007763	 0.117403
		CHANNELS 3 Zrotation Xrotation Yrotation
		JOINT Spine1
		{
			OFFSET	 0.000000	 0.000000	 0.137269
			CHANNELS 3 Zrotation Xrotation Yrotation
			JOINT Spine2
			{
				OFFSET	 0.000000	 0.000000	 0.156879
				CHANNELS 3 Zrotation Xrotation Yrotation
				JOINT LeftShoulder
				{
					OFFSET	 0.080501	-0.002496	 0.160144
					CHANNELS 3 Zrotation Xrotation Yrotation
					JOINT LeftArm
					{
						OFFSET	 0.000000	 0.000000	 0.164363
						CHANNELS 3 Zrotation Xrotation Yrotation
						JOINT LeftForeArm
						{
							OFFSET	 0.000000	 0.000000	 0.364576
							CHANNELS 3 Zrotation Xrotation Yrotation
							JOINT LeftHand
							{
								OFFSET	 0.000000	 0.000000	 0.360812
								CHANNELS 3 Zrotation Xrotation Yrotation
								JOINT LeftHandIndex1
								{
									OFFSET	 0.000000	 0.000000	 0.086006
									CHANNELS 3 Zrotation Xrotation Yrotation
									JOINT LeftHandIndex2
									{
										OFFSET	 0.000000	 0.000000	 0.047236
										CHANNELS 3 Zrotation Xrotation Yrotation
										JOINT LeftHandIndex3
										{
											OFFSET	-0.004284	-0.000551	 0.038166
											CHANNELS 3 Zrotation Xrotation Yrotation
											End Site
											{
												OFFSET	-0.004284	-0.000551	 0.038166
											}
										}
									}
								}
							}
						}
					}
				}
				JOINT Neck
				{
					OFFSET	 0.000000	 0.000000	 0.176489
					CHANNELS 3 Zrotation Xrotation Yrotation
					JOINT Head
					{
						OFFSET	 0.000000	-0.001747	 0.077940
						CHANNELS 3 Zrotation Xrotation Yrotation
						End Site
						{
							OFFSET	 0.000000	-0.001747	 0.077940
						}
					}
				}
				JOINT RightShoulder
				{
					OFFSET	-0.080363	 0.000306	 0.159706
					CHANNELS 3 Zrotation Xrotation Yrotation
					JOINT RightArm
					{
						OFFSET	 0.000000	 0.000000	 0.164196
						CHANNELS 3 Zrotation Xrotation Yrotation
						JOINT RightForeArm
						{
							OFFSET	 0.000000	 0.000000	 0.365611
							CHANNELS 3 Zrotation Xrotation Yrotation
							JOINT RightHand
							{
								OFFSET	 0.000000	 0.000000	 0.360648
								CHANNELS 3 Zrotation Xrotation Yrotation
								JOINT RightHandIndex1
								{
									OFFSET	 0.000000	 0.000000	 0.069977
									CHANNELS 3 Zrotation Xrotation Yrotation
									JOINT RightHandIndex2
									{
										OFFSET	 0.000000	 0.000000	 0.052305
										CHANNELS 3 Zrotation Xrotation Yrotation
										JOINT RightHandIndex3
										{
											OFFSET	 0.009002	-0.000782	 0.042196
											CHANNELS 3 Zrotation Xrotation Yrotation
											End Site
											{
												OFFSET	 0.009002	-0.000782	 0.042196
											}
										}
									}
								}
							}
						}
					}
				}
			}
		}
	}
}
MOTION
Frames:    8
Frame Time: 0.03333334
 0.000296	 0.019714	 1.271250	-0.003036	 0.003594	 0.173707	 7.395327	-1.846754	 176.361400	 1.483803	-11.076520	-0.645287	-8.946738	 70.095320	 3.030802	-2.385833	 28.452760	 0.000004	-7.566568	-1.876103	-176.680900	-1.474158	-10.722200	 0.612673	 8.517945	 69.794990	-2.768880	 2.384658	 28.388730	 0.000004	-8.485498	 2.683151	 0.296145	-2.160264	 3.802536	-0.801567	 6.539606	-4.673430	 1.419212	-91.776130	 78.527430	 179.999900	 47.277090	 36.219620	-61.071090	-10.270980	 0.235255	-1.501898	-31.624980	-13.582830	-4.757471	-2.635965	 4.993658	 6.788941	-5.165319	 0.784187	 3.516649	-5.225038	 0.466231	 0.424329	-0.000002	-3.783157	-0.089647	 6.359361	 4.548270	-0.252815	 89.782140	 78.203920	 180.000000	-63.817750	 41.845290	 60.365220	 10.261100	 0.262043	 1.520193	 32.074710	-14.207020	 9.476966	 6.112037	 4.509576	-0.364401	 4.968462	 1.518543	-9.347576	 5.168945	 0.703820	 2.021906
 0.000299	 0.019713	 1.271344	-0.002856	 0.003922	 0.174247	 7.610081	-1.859961	 176.347300	 1.483865	-11.071080	-0.644963	-8.936414	 70.072720	 3.020625	-2.385833	 28.452760	 0.000004	-7.781634	-1.886633	-176.668500	-1.474236	-10.714270	 0.612209	 8.506025	 69.771950	-2.756540	 2.384658	 28.388730	 0.000004	-10.943850	 2.647062	 0.290425	-2.155289	 3.927474	-0.790528	 6.523850	-4.835236	 1.426512	-91.776180	 78.527470	 180.000000	 47.293580	 36.196700	-60.976110	-11.513650	 0.304886	-2.124241	-32.405360	-14.375860	-4.968420	-2.635965	 4.993658	 6.788941	-5.165319	 0.784187	 3.516649	-5.225038	 0.466231	 0.424329	-0.000002	-3.783157	-0.089647	 6.337460	 4.474787	-0.247868	 89.782100	 78.203900	 180.000000	-63.538240	 41.718620	 60.808980	 11.315900	 0.331014	 2.141849	 32.937010	-14.999590	 9.693396	 6.112037	 4.509576	-0.364401	 4.968462	 1.518543	-9.347576	 5.168945	 0.703820	 2.021906
 0.000303	 0.019711	 1.271537	-0.002503	 0.004557	 0.174479	 8.027311	-1.884393	 176.320800	 1.484012	-11.057850	-0.644172	-8.915346	 70.027460	 2.999802	-2.385833	 28.452760	 0.000004	-8.199227	-1.907816	-176.644000	-1.474395	-10.699920	 0.611369	 8.482864	 69.727680	-2.732443	 2.384658	 28.388730	 0.000004	-15.351580	 2.577339	 0.278780	-2.137289	 4.168921	-0.766060	 6.467802	-5.149711	 1.434772	-91.776170	 78.527450	 180.000000	 47.321820	 36.147000	-60.783790	-13.776660	 0.500288	-3.248992	-33.843760	-15.792840	-5.409250	-2.635965	 4.993658	 6.788941	-5.165319	 0.784187	 3.516649	-5.225038	 0.466231	 0.424329	-0.000002	-3.783157	-0.089647	 6.270195	 4.335645	-0.237600	 89.782130	 78.203900	 180.000000	-62.873450	 41.431370	 61.834660	 13.351420	 0.526173	 3.268500	 34.384240	-16.407880	 10.119780	 6.112037	 4.509576	-0.364401	 4.968462	 1.518543	-9.347576	 5.168945	 0.703820	 2.021906
 0.000304	 0.019712	 1.271700	-0.002175	 0.005109	 0.173802	 8.386884	-1.904141	 176.298800	 1.484185	-11.043690	-0.643326	-8.896091	 69.987090	 2.980765	-2.385833	 28.452760	 0.000004	-8.558815	-1.927103	-176.622300	-1.474511	-10.689170	 0.610741	 8.463012	 69.690450	-2.711689	 2.384658	 28.388730	 0.000004	-18.843230	 2.517830	 0.268298	-2.112951	 4.374913	-0.742046	 6.392597	-5.419867	 1.435383	-91.776130	 78.527420	 180.000000	 47.341220	 36.097550	-60.605590	-15.617820	 0.727101	-4.159325	-35.032260	-16.908780	-5.821090	-2.635965	 4.993658	 6.788941	-5.165319	 0.784187	 3.516649	-5.225038	 0.466231	 0.424329	-0.000002	-3.783157	-0.089647	 6.186300	 4.219981	-0.228156	 89.782110	 78.203900	 180.000000	-62.226810	 40.973970	 62.831160	 14.861210	 0.849579	 4.346537	 35.705180	-17.678400	 10.457370	 6.112037	 4.509576	-0.364401	 4.968462	 1.518543	-9.347576	 5.168945	 0.703820	 2.021906
 0.000301	 0.019716	 1.271868	-0.001785	 0.005727	 0.172128	 8.786738	-1.924747	 176.275300	 1.484392	-11.025050	-0.642212	-8.873526	 69.940760	 2.958447	-2.385833	 28.452760	 0.000004	-8.958398	-1.949676	-176.597600	-1.474627	-10.678960	 0.610144	 8.441074	 69.649980	-2.688647	 2.384658	 28.388730	 0.000004	-22.422490	 2.452560	 0.256256	-2.076286	 4.600890	-0.712378	 6.279767	-5.718240	 1.428655	-91.776150	 78.527470	 180.000000	 47.358620	 36.033790	-60.397090	-17.571860	 1.033122	-5.114822	-36.313160	-18.044040	-6.308704	-2.635965	 4.993658	 6.788941	-5.165319	 0.784187	 3.516649	-5.225038	 0.466231	 0.424329	-0.000002	-3.783157	-0.089647	 6.065044	 4.096249	-0.217112	 89.782070	 78.203850	-180.000000	-60.106620	 39.897930	 59.525240	 16.046660	 5.459959	 12.208520	 37.128110	-19.000640	 10.868040	 6.112037	 4.509576	-0.364401	 4.968462	 1.518543	-9.347576	 5.168945	 0.703820	 2.021906
 0.000296	 0.019724	 1.272045	-0.001389	 0.006331	 0.169262	 9.194417	-1.944296	 176.252500	 1.484644	-11.003160	-0.640906	-8.849350	 69.892080	 2.934544	-2.385833	 28.452760	 0.000004	-9.365366	-1.974114	-176.571700	-1.474714	-10.670870	 0.609670	 8.418943	 69.609980	-2.665280	 2.384658	 28.388730	 0.000004	-25.745690	 2.387280	 0.243878	-2.028503	 4.826957	-0.679224	 6.133242	-6.018832	 1.413450	-91.776230	 78.527450	-180.000000	 47.369130	 35.963120	-60.170980	-19.474160	 1.398064	-6.035696	-37.579940	-19.087110	-6.830485	-2.635965	 4.993658	 6.788941	-5.165319	 0.784187	 3.516649	-5.225038	 0.466231	 0.424329	-0.000002	-3.783157	-0.089647	 5.911568	 3.975831	-0.205383	 89.782130	 78.203890	 180.000000	-58.550700	 39.073410	 59.456070	 17.162980	 7.643531	 15.572170	 38.538160	-20.262250	 11.313730	 6.112037	 4.509576	-0.364401	 4.968462	 1.518543	-9.347576	 5.168945	 0.703820	 2.021906
 0.000288	 0.019734	 1.272215	-0.001007	 0.006884	 0.165543	 9.580268	-1.961319	 176.232000	 1.484912	-10.979520	-0.639494	-8.825413	 69.844570	 2.910819	-2.385833	 28.452760	 0.000004	-9.738874	-1.997897	-176.547100	-1.474771	-10.665510	 0.609357	 8.412470	 69.573130	-2.646383	 2.384658	 28.388730	 0.000004	-28.582750	 2.326926	 0.232130	-1.973628	 5.035981	-0.645429	 5.965425	-6.298665	 1.391013	-91.776190	 78.527430	-180.000000	 47.376990	 35.886670	-59.951510	-21.197330	 1.782491	-6.853919	-38.743620	-19.966160	-7.339393	-2.635965	 4.993658	 6.788941	-5.165319	 0.784187	 3.516649	-5.225038	 0.466231	 0.424329	-0.000002	-3.783157	-0.089647	 5.738919	 3.867413	-0.193934	 89.782170	 78.203890	 179.999900	-57.178320	 38.364830	 60.625740	 18.217570	 8.804023	 17.133090	 39.837170	-21.375790	 11.752550	 6.112037	 4.509576	-0.364401	 4.968462	 1.518543	-9.347576	 5.168945	 0.703820	 2.021906
 0.000277	 0.019745	 1.272378	-0.000607	 0.007434	 0.160346	 10.008690	-1.979231	 176.210400	 1.485228	-10.951480	-0.637820	-8.783313	 69.792310	 2.880848	-2.385833	 28.452760	 0.000004	-10.154490	-2.026406	-176.519200	-1.474794	-10.663090	 0.609216	 8.389665	 69.535410	-2.622916	 2.384658	 28.388730	 0.000004	-31.298320	 2.263714	 0.219655	-1.903946	 5.255090	-0.606606	 5.752926	-6.593987	 1.357776	-91.776120	 78.527470	 180.000000	 47.381770	 35.796510	-59.706500	-22.975190	 2.236315	-7.685340	-39.959020	-20.793830	-7.895535	-2.635965	 4.993658	 6.788941	-5.165319	 0.784187	 3.516649	-5.225038	 0.466231	 0.424329	-0.000002	-3.783157	-0.089647	 5.523312	 3.756812	-0.181297	 89.782150	 78.203900	 180.000000	-55.699180	 37.620430	 62.466830	 19.347300	 9.612391	 18.034270	 41.167240	-22.474740	 12.230610	 6.112037	 4.509576	-0.364401	 4.968462	 1.518543	-9.347576	 5.168945	 0.703820	 2.021906
